<svg xmlns="http://www.w3.org/2000/svg" viewBox="0 0 512 512">
  <circle cx="256" cy="256" r="256" fill="#1FA4A9" fill-opacity="0.1"/>
  <path fill="#1FA4A9" d="M462.3 62.6C407.5 15.9 326 24.3 275.7 76.2L256 96.5l-19.7-20.3C186.1 24.3 104.5 15.9 49.7 62.6c-62.8 53.6-66.1 149.8-9.9 207.9l193.5 199.8c12.5 12.9 32.8 12.9 45.3 0l193.5-199.8c56.3-58.1 53-154.3-9.8-207.9zM368 209h-80l-58.4 146c-5 12.6-18 20.9-31.5 21s-26.6-8.1-31.8-20.6L105 104.7 55.2 209H16c-8.8 0-16 7.2-16 16s7.2 16 16 16h48l58.4-146c5-12.6 18-20.9 31.5-21s26.6 8.1 31.8 20.6L215 407.3l49.8-104.3H400c8.8 0 16-7.2 16-16s-7.2-16-16-16z"/>
</svg>
